<?xml version="1.0" standalone="no"?>
<!DOCTYPE svg PUBLIC "-//W3C//DTD SVG 20010904//EN"
 "http://www.w3.org/TR/2001/REC-SVG-20010904/DTD/svg10.dtd">
<svg version="1.0" xmlns="http://www.w3.org/2000/svg"
 width="101.000000pt" height="101.000000pt" viewBox="0 0 101.000000 101.000000"
 preserveAspectRatio="xMidYMid meet">
<metadata>
Created by potrace 1.11, written by Peter Selinger 2001-2013
</metadata>
<g transform="translate(0.000000,101.000000) scale(0.100000,-0.100000)"
fill="#000000" stroke="none">
<path d="M454 999 c-40 -20 -54 -61 -54 -157 l0 -91 -65 65 c-35 35 -72 65
-82 66 -10 0 -25 2 -33 3 -24 2 -68 -23 -86 -50 -30 -46 -7 -99 76 -180 l42
-40 -95 -5 c-93 -5 -113 -12 -144 -50 -7 -8 -13 -26 -13 -38 0 -32 28 -89 48
-98 9 -5 62 -11 117 -14 l100 -5 -59 -55 c-31 -30 -64 -67 -72 -82 -15 -29
-11 -82 8 -106 18 -21 63 -41 84 -37 10 2 24 4 29 4 6 1 40 28 75 62 l65 61 5
-88 c7 -103 11 -114 49 -137 37 -22 65 -22 102 0 38 23 42 34 49 140 l5 93 68
-64 c37 -36 80 -67 96 -71 62 -13 129 54 116 115 -3 15 -35 59 -70 96 l-64 69
77 3 c101 3 117 7 147 40 29 31 32 72 8 113 -23 38 -34 42 -137 49 l-90 5 61
61 c87 88 92 152 16 197 -50 29 -86 15 -165 -61 l-68 -65 0 92 c0 69 -4 100
-17 121 -26 45 -81 62 -129 39z"/>
</g>
</svg>
